<mxfile host="app.diagrams.net" agent="Mozilla/5.0 (Windows NT 10.0; Win64; x64) AppleWebKit/537.36 (KHTML, like Gecko) Chrome/129.0.0.0 Safari/537.36" version="24.7.17">
  <diagram name="PÃ¡gina-1" id="LjQblv9JYK4OTCyRPnDW">
    <mxGraphModel dx="1434" dy="738" grid="1" gridSize="10" guides="1" tooltips="1" connect="1" arrows="1" fold="1" page="1" pageScale="1" pageWidth="827" pageHeight="1169" math="0" shadow="0">
      <root>
        <mxCell id="0" />
        <mxCell id="1" parent="0" />
        <mxCell id="idkrvYmvYcWtxSfBC_TM-19" value="Consulta" style="swimlane;fontStyle=0;childLayout=stackLayout;horizontal=1;startSize=26;fillColor=#ffe6cc;horizontalStack=0;resizeParent=1;resizeParentMax=0;resizeLast=0;collapsible=1;marginBottom=0;html=1;strokeColor=#d79b00;" vertex="1" parent="1">
          <mxGeometry x="180" y="110" width="160" height="200" as="geometry" />
        </mxCell>
        <mxCell id="idkrvYmvYcWtxSfBC_TM-20" value="&lt;span class=&quot;hljs-bullet&quot;&gt;-&lt;/span&gt; &lt;span class=&quot;hljs-attr&quot;&gt;idConsulta:&lt;/span&gt; &lt;span class=&quot;hljs-string&quot;&gt;String&lt;/span&gt;" style="text;strokeColor=none;fillColor=none;align=left;verticalAlign=top;spacingLeft=4;spacingRight=4;overflow=hidden;rotatable=0;points=[[0,0.5],[1,0.5]];portConstraint=eastwest;whiteSpace=wrap;html=1;" vertex="1" parent="idkrvYmvYcWtxSfBC_TM-19">
          <mxGeometry y="26" width="160" height="26" as="geometry" />
        </mxCell>
        <mxCell id="idkrvYmvYcWtxSfBC_TM-21" value="&lt;span class=&quot;hljs-bullet&quot;&gt;-&lt;/span&gt; &lt;span class=&quot;hljs-attr&quot;&gt;data:&lt;/span&gt; &lt;span class=&quot;hljs-string&quot;&gt;Date&lt;/span&gt;" style="text;strokeColor=none;fillColor=none;align=left;verticalAlign=top;spacingLeft=4;spacingRight=4;overflow=hidden;rotatable=0;points=[[0,0.5],[1,0.5]];portConstraint=eastwest;whiteSpace=wrap;html=1;" vertex="1" parent="idkrvYmvYcWtxSfBC_TM-19">
          <mxGeometry y="52" width="160" height="26" as="geometry" />
        </mxCell>
        <mxCell id="idkrvYmvYcWtxSfBC_TM-23" value="&lt;span class=&quot;hljs-bullet&quot;&gt;-&lt;/span&gt; &lt;span class=&quot;hljs-attr&quot;&gt;tipoTratamento:&lt;/span&gt; &lt;span class=&quot;hljs-string&quot;&gt;String&lt;/span&gt;" style="text;strokeColor=none;fillColor=none;align=left;verticalAlign=top;spacingLeft=4;spacingRight=4;overflow=hidden;rotatable=0;points=[[0,0.5],[1,0.5]];portConstraint=eastwest;whiteSpace=wrap;html=1;" vertex="1" parent="idkrvYmvYcWtxSfBC_TM-19">
          <mxGeometry y="78" width="160" height="26" as="geometry" />
        </mxCell>
        <mxCell id="idkrvYmvYcWtxSfBC_TM-24" value="&lt;span class=&quot;hljs-bullet&quot;&gt;-&lt;/span&gt; &lt;span class=&quot;hljs-attr&quot;&gt;paciente:&lt;/span&gt; &lt;span class=&quot;hljs-string&quot;&gt;Paciente&lt;/span&gt;" style="text;strokeColor=none;fillColor=none;align=left;verticalAlign=top;spacingLeft=4;spacingRight=4;overflow=hidden;rotatable=0;points=[[0,0.5],[1,0.5]];portConstraint=eastwest;whiteSpace=wrap;html=1;" vertex="1" parent="idkrvYmvYcWtxSfBC_TM-19">
          <mxGeometry y="104" width="160" height="26" as="geometry" />
        </mxCell>
        <mxCell id="idkrvYmvYcWtxSfBC_TM-25" value="&lt;span class=&quot;hljs-bullet&quot;&gt;-&lt;/span&gt; &lt;span class=&quot;hljs-attr&quot;&gt;dentista:&lt;/span&gt; &lt;span class=&quot;hljs-string&quot;&gt;Dentista&lt;/span&gt;" style="text;strokeColor=none;fillColor=none;align=left;verticalAlign=top;spacingLeft=4;spacingRight=4;overflow=hidden;rotatable=0;points=[[0,0.5],[1,0.5]];portConstraint=eastwest;whiteSpace=wrap;html=1;" vertex="1" parent="idkrvYmvYcWtxSfBC_TM-19">
          <mxGeometry y="130" width="160" height="26" as="geometry" />
        </mxCell>
        <mxCell id="idkrvYmvYcWtxSfBC_TM-26" value="&lt;span class=&quot;hljs-bullet&quot;&gt;-&lt;/span&gt; &lt;span class=&quot;hljs-attr&quot;&gt;diagnostico:&lt;/span&gt;&amp;nbsp;&amp;nbsp;&lt;div&gt;&lt;span class=&quot;hljs-string&quot;&gt;Diagnostico&lt;/span&gt;&lt;/div&gt;" style="text;strokeColor=none;fillColor=none;align=left;verticalAlign=top;spacingLeft=4;spacingRight=4;overflow=hidden;rotatable=0;points=[[0,0.5],[1,0.5]];portConstraint=eastwest;whiteSpace=wrap;html=1;" vertex="1" parent="idkrvYmvYcWtxSfBC_TM-19">
          <mxGeometry y="156" width="160" height="44" as="geometry" />
        </mxCell>
        <mxCell id="idkrvYmvYcWtxSfBC_TM-27" value="Paciente" style="swimlane;fontStyle=0;childLayout=stackLayout;horizontal=1;startSize=26;fillColor=#ffe6cc;horizontalStack=0;resizeParent=1;resizeParentMax=0;resizeLast=0;collapsible=1;marginBottom=0;html=1;strokeColor=#d79b00;" vertex="1" parent="1">
          <mxGeometry x="500" y="120" width="160" height="130" as="geometry" />
        </mxCell>
        <mxCell id="idkrvYmvYcWtxSfBC_TM-28" value="&lt;span class=&quot;hljs-bullet&quot;&gt;-&lt;/span&gt; &lt;span class=&quot;hljs-attr&quot;&gt;idPaciente:&lt;/span&gt; &lt;span class=&quot;hljs-string&quot;&gt;String&lt;/span&gt;" style="text;strokeColor=none;fillColor=none;align=left;verticalAlign=top;spacingLeft=4;spacingRight=4;overflow=hidden;rotatable=0;points=[[0,0.5],[1,0.5]];portConstraint=eastwest;whiteSpace=wrap;html=1;" vertex="1" parent="idkrvYmvYcWtxSfBC_TM-27">
          <mxGeometry y="26" width="160" height="26" as="geometry" />
        </mxCell>
        <mxCell id="idkrvYmvYcWtxSfBC_TM-29" value="&lt;span class=&quot;hljs-bullet&quot;&gt;-&lt;/span&gt; &lt;span class=&quot;hljs-attr&quot;&gt;nome:&lt;/span&gt; &lt;span class=&quot;hljs-string&quot;&gt;String&lt;/span&gt;" style="text;strokeColor=none;fillColor=none;align=left;verticalAlign=top;spacingLeft=4;spacingRight=4;overflow=hidden;rotatable=0;points=[[0,0.5],[1,0.5]];portConstraint=eastwest;whiteSpace=wrap;html=1;" vertex="1" parent="idkrvYmvYcWtxSfBC_TM-27">
          <mxGeometry y="52" width="160" height="26" as="geometry" />
        </mxCell>
        <mxCell id="idkrvYmvYcWtxSfBC_TM-30" value="&lt;span class=&quot;hljs-bullet&quot;&gt;-&lt;/span&gt; &lt;span class=&quot;hljs-attr&quot;&gt;cpf:&lt;/span&gt; &lt;span class=&quot;hljs-string&quot;&gt;String&lt;/span&gt;" style="text;strokeColor=none;fillColor=none;align=left;verticalAlign=top;spacingLeft=4;spacingRight=4;overflow=hidden;rotatable=0;points=[[0,0.5],[1,0.5]];portConstraint=eastwest;whiteSpace=wrap;html=1;" vertex="1" parent="idkrvYmvYcWtxSfBC_TM-27">
          <mxGeometry y="78" width="160" height="26" as="geometry" />
        </mxCell>
        <mxCell id="idkrvYmvYcWtxSfBC_TM-31" value="&lt;span class=&quot;hljs-bullet&quot;&gt;-&lt;/span&gt; &lt;span class=&quot;hljs-attr&quot;&gt;dataNascimento:&lt;/span&gt; &lt;span class=&quot;hljs-string&quot;&gt;String&lt;/span&gt;" style="text;strokeColor=none;fillColor=none;align=left;verticalAlign=top;spacingLeft=4;spacingRight=4;overflow=hidden;rotatable=0;points=[[0,0.5],[1,0.5]];portConstraint=eastwest;whiteSpace=wrap;html=1;" vertex="1" parent="idkrvYmvYcWtxSfBC_TM-27">
          <mxGeometry y="104" width="160" height="26" as="geometry" />
        </mxCell>
        <mxCell id="idkrvYmvYcWtxSfBC_TM-34" value="Dentista" style="swimlane;fontStyle=0;childLayout=stackLayout;horizontal=1;startSize=26;fillColor=#ffe6cc;horizontalStack=0;resizeParent=1;resizeParentMax=0;resizeLast=0;collapsible=1;marginBottom=0;html=1;strokeColor=#d79b00;" vertex="1" parent="1">
          <mxGeometry x="180" y="410" width="160" height="130" as="geometry" />
        </mxCell>
        <mxCell id="idkrvYmvYcWtxSfBC_TM-35" value="&lt;span class=&quot;hljs-bullet&quot;&gt;-&lt;/span&gt; &lt;span class=&quot;hljs-attr&quot;&gt;idDentista:&lt;/span&gt; &lt;span class=&quot;hljs-string&quot;&gt;String&lt;/span&gt;" style="text;strokeColor=none;fillColor=none;align=left;verticalAlign=top;spacingLeft=4;spacingRight=4;overflow=hidden;rotatable=0;points=[[0,0.5],[1,0.5]];portConstraint=eastwest;whiteSpace=wrap;html=1;" vertex="1" parent="idkrvYmvYcWtxSfBC_TM-34">
          <mxGeometry y="26" width="160" height="26" as="geometry" />
        </mxCell>
        <mxCell id="idkrvYmvYcWtxSfBC_TM-36" value="&lt;span class=&quot;hljs-bullet&quot;&gt;-&lt;/span&gt; &lt;span class=&quot;hljs-attr&quot;&gt;nome:&lt;/span&gt; &lt;span class=&quot;hljs-string&quot;&gt;String&lt;/span&gt;" style="text;strokeColor=none;fillColor=none;align=left;verticalAlign=top;spacingLeft=4;spacingRight=4;overflow=hidden;rotatable=0;points=[[0,0.5],[1,0.5]];portConstraint=eastwest;whiteSpace=wrap;html=1;" vertex="1" parent="idkrvYmvYcWtxSfBC_TM-34">
          <mxGeometry y="52" width="160" height="26" as="geometry" />
        </mxCell>
        <mxCell id="idkrvYmvYcWtxSfBC_TM-37" value="&lt;span class=&quot;hljs-bullet&quot;&gt;-&lt;/span&gt; &lt;span class=&quot;hljs-attr&quot;&gt;documento:&lt;/span&gt; &lt;span class=&quot;hljs-string&quot;&gt;String&lt;/span&gt;" style="text;strokeColor=none;fillColor=none;align=left;verticalAlign=top;spacingLeft=4;spacingRight=4;overflow=hidden;rotatable=0;points=[[0,0.5],[1,0.5]];portConstraint=eastwest;whiteSpace=wrap;html=1;" vertex="1" parent="idkrvYmvYcWtxSfBC_TM-34">
          <mxGeometry y="78" width="160" height="26" as="geometry" />
        </mxCell>
        <mxCell id="idkrvYmvYcWtxSfBC_TM-38" value="&lt;span class=&quot;hljs-bullet&quot;&gt;-&lt;/span&gt; &lt;span class=&quot;hljs-attr&quot;&gt;especializacao:&lt;/span&gt; &lt;span class=&quot;hljs-string&quot;&gt;String&lt;/span&gt;" style="text;strokeColor=none;fillColor=none;align=left;verticalAlign=top;spacingLeft=4;spacingRight=4;overflow=hidden;rotatable=0;points=[[0,0.5],[1,0.5]];portConstraint=eastwest;whiteSpace=wrap;html=1;" vertex="1" parent="idkrvYmvYcWtxSfBC_TM-34">
          <mxGeometry y="104" width="160" height="26" as="geometry" />
        </mxCell>
        <mxCell id="idkrvYmvYcWtxSfBC_TM-41" value="Diagnostico" style="swimlane;fontStyle=0;childLayout=stackLayout;horizontal=1;startSize=26;fillColor=#ffe6cc;horizontalStack=0;resizeParent=1;resizeParentMax=0;resizeLast=0;collapsible=1;marginBottom=0;html=1;strokeColor=#d79b00;" vertex="1" parent="1">
          <mxGeometry x="170" y="660" width="160" height="130" as="geometry" />
        </mxCell>
        <mxCell id="idkrvYmvYcWtxSfBC_TM-42" value="&lt;span class=&quot;hljs-bullet&quot;&gt;-&lt;/span&gt; &lt;span class=&quot;hljs-attr&quot;&gt;idDiagnostico:&lt;/span&gt; &lt;span class=&quot;hljs-string&quot;&gt;String&lt;/span&gt;" style="text;strokeColor=none;fillColor=none;align=left;verticalAlign=top;spacingLeft=4;spacingRight=4;overflow=hidden;rotatable=0;points=[[0,0.5],[1,0.5]];portConstraint=eastwest;whiteSpace=wrap;html=1;" vertex="1" parent="idkrvYmvYcWtxSfBC_TM-41">
          <mxGeometry y="26" width="160" height="26" as="geometry" />
        </mxCell>
        <mxCell id="idkrvYmvYcWtxSfBC_TM-43" value="&lt;span class=&quot;hljs-bullet&quot;&gt;-&lt;/span&gt; &lt;span class=&quot;hljs-attr&quot;&gt;descricao:&lt;/span&gt; &lt;span class=&quot;hljs-string&quot;&gt;String&lt;/span&gt;" style="text;strokeColor=none;fillColor=none;align=left;verticalAlign=top;spacingLeft=4;spacingRight=4;overflow=hidden;rotatable=0;points=[[0,0.5],[1,0.5]];portConstraint=eastwest;whiteSpace=wrap;html=1;" vertex="1" parent="idkrvYmvYcWtxSfBC_TM-41">
          <mxGeometry y="52" width="160" height="26" as="geometry" />
        </mxCell>
        <mxCell id="idkrvYmvYcWtxSfBC_TM-44" value="&lt;span class=&quot;hljs-bullet&quot;&gt;-&lt;/span&gt; &lt;span class=&quot;hljs-attr&quot;&gt;documento:&lt;/span&gt; &lt;span class=&quot;hljs-string&quot;&gt;String&lt;/span&gt;" style="text;strokeColor=none;fillColor=none;align=left;verticalAlign=top;spacingLeft=4;spacingRight=4;overflow=hidden;rotatable=0;points=[[0,0.5],[1,0.5]];portConstraint=eastwest;whiteSpace=wrap;html=1;" vertex="1" parent="idkrvYmvYcWtxSfBC_TM-41">
          <mxGeometry y="78" width="160" height="26" as="geometry" />
        </mxCell>
        <mxCell id="idkrvYmvYcWtxSfBC_TM-45" value="&lt;span class=&quot;hljs-bullet&quot;&gt;-&lt;/span&gt; &lt;span class=&quot;hljs-attr&quot;&gt;recomendacao:&lt;/span&gt; &lt;span class=&quot;hljs-string&quot;&gt;String&lt;/span&gt;" style="text;strokeColor=none;fillColor=none;align=left;verticalAlign=top;spacingLeft=4;spacingRight=4;overflow=hidden;rotatable=0;points=[[0,0.5],[1,0.5]];portConstraint=eastwest;whiteSpace=wrap;html=1;" vertex="1" parent="idkrvYmvYcWtxSfBC_TM-41">
          <mxGeometry y="104" width="160" height="26" as="geometry" />
        </mxCell>
        <mxCell id="idkrvYmvYcWtxSfBC_TM-46" value="1" style="endArrow=open;html=1;endSize=12;startArrow=diamondThin;startSize=14;startFill=1;edgeStyle=orthogonalEdgeStyle;align=left;verticalAlign=bottom;rounded=0;" edge="1" parent="1">
          <mxGeometry x="-1" y="3" relative="1" as="geometry">
            <mxPoint x="259.5" y="310" as="sourcePoint" />
            <mxPoint x="259.5" y="410" as="targetPoint" />
          </mxGeometry>
        </mxCell>
        <mxCell id="idkrvYmvYcWtxSfBC_TM-47" value="1" style="endArrow=open;html=1;endSize=12;startArrow=diamondThin;startSize=14;startFill=1;edgeStyle=orthogonalEdgeStyle;align=left;verticalAlign=bottom;rounded=0;" edge="1" parent="1">
          <mxGeometry x="-1" y="3" relative="1" as="geometry">
            <mxPoint x="340" y="190" as="sourcePoint" />
            <mxPoint x="500" y="190" as="targetPoint" />
          </mxGeometry>
        </mxCell>
        <mxCell id="idkrvYmvYcWtxSfBC_TM-48" value="1" style="endArrow=open;html=1;endSize=12;startArrow=diamondThin;startSize=14;startFill=1;edgeStyle=orthogonalEdgeStyle;align=left;verticalAlign=bottom;rounded=0;" edge="1" parent="1">
          <mxGeometry x="-1" y="3" relative="1" as="geometry">
            <mxPoint x="249.5" y="550" as="sourcePoint" />
            <mxPoint x="249.5" y="640" as="targetPoint" />
          </mxGeometry>
        </mxCell>
      </root>
    </mxGraphModel>
  </diagram>
</mxfile>
